<?xml version="1.0" encoding="utf-8"?>
<!-- Generator: Adobe Illustrator 18.0.0, SVG Export Plug-In . SVG Version: 6.00 Build 0)  -->
<!DOCTYPE svg PUBLIC "-//W3C//DTD SVG 1.1//EN" "http://www.w3.org/Graphics/SVG/1.1/DTD/svg11.dtd">
<svg version="1.1" id="Layer_1" xmlns="http://www.w3.org/2000/svg" xmlns:xlink="http://www.w3.org/1999/xlink" x="0px" y="0px"
	 viewBox="0 0 612 400" enable-background="new 0 0 612 400" xml:space="preserve">
<path fill="#9AAB75" d="M479.1,183.6h-37c-1.1,0-2,0.8-2,2v4.4c0,0.6,0.3,1.1,0.7,1.6l10.6,8.4v7.9c-1-0.3-2.1,0.1-2.4,1.1
	c-0.4,1,0.1,2.1,1.1,2.5l1.3,0.6v5.4c-1-0.3-2.1,0.1-2.4,1.1c-0.4,1,0.1,2.1,1.1,2.5l1.3,0.6v5.4c-1-0.3-2.1,0.1-2.4,1.1
	c-0.4,1,0.1,2.3,1.1,2.5l1.3,0.6v5.4c-1-0.3-2.1,0.1-2.4,1.1c-0.4,1,0.1,2.1,1.1,2.5l1.3,0.6v5.4c-1-0.3-2.1,0.1-2.4,1.1
	c-0.4,1,0.1,2.3,1.1,2.5l1.3,0.6v5.4c-1-0.3-2.1,0.1-2.4,1.1c-0.4,1,0.1,2.1,1.1,2.5l1.3,0.6v5.4c-1-0.3-2.1,0.1-2.4,1.1
	c-0.4,1,0.1,2.3,1.1,2.5l1.3,0.6v5.4c-1-0.3-2.1,0.1-2.4,1.1c-0.4,1,0.1,2.1,1.1,2.5l1.3,0.6v5.4c-1-0.3-2.1,0.1-2.4,1.1
	c-0.4,1,0.1,2.1,1.1,2.5l1.3,0.6v5.4c-1-0.3-2.1,0.1-2.4,1.1c-0.4,1,0.1,2.1,1.1,2.5l1.3,0.6v5.4c-1-0.3-2.1,0.1-2.4,1.1
	c-0.4,1,0.1,2.1,1.1,2.5l1.3,0.6v5.4c-1-0.3-2.1,0.1-2.4,1.1c-0.4,1,0.1,2.3,1.1,2.5l1.3,0.6v5.4c-1-0.3-2.1,0.1-2.4,1.1
	c-0.4,1,0.1,2.1,1.1,2.5l1.3,0.6v5.4c-1-0.3-2.1,0.1-2.4,1.1c-0.4,1,0.1,2.3,1.1,2.5l1.3,0.6v5.4c-1-0.3-2.1,0.1-2.4,1.1
	c-0.4,1,0.1,2.1,1.1,2.5l1.3,0.6v11c0,10.2,4.4,16.3,6.9,19c0.4,0.4,0.8,0.6,1.4,0.6h1.3c0.6,0,1.1-0.3,1.4-0.6
	c2.5-2.7,6.9-8.8,6.9-19v-13.7c0.1,0.1,0.4,0.1,0.6,0.1c0.8,0,1.6-0.4,1.8-1.3c0.4-1-0.1-2.3-1.1-2.5l-1.3-0.6v-5.4
	c0.1,0.1,0.4,0.1,0.6,0.1c0.8,0,1.6-0.6,1.8-1.3c0.4-1-0.1-2.1-1.1-2.5l-1.3-0.6v-5.4c0.1,0.1,0.4,0.1,0.6,0.1
	c0.8,0,1.6-0.4,1.8-1.3c0.4-1-0.1-2.3-1.1-2.5l-1.3-0.6v-6.1c0.1,0.1,0.4,0.1,0.6,0.1c0.8,0,1.6-0.6,1.8-1.3c0.4-1-0.1-2.1-1.1-2.5
	l-1.3-0.6V305c0.1,0.1,0.4,0.1,0.6,0.1c0.8,0,1.6-0.6,1.8-1.3c0.4-1-0.1-2.3-1.1-2.5l-1.3-0.6v-5.4c0.1,0.1,0.4,0.1,0.6,0.1
	c0.8,0,1.6-0.6,1.8-1.3c0.4-1-0.1-2.1-1.1-2.5l-1.3-0.6v-5.4c0.1,0.1,0.4,0.1,0.6,0.1c0.8,0,1.6-0.6,1.8-1.3c0.4-1-0.1-2.3-1.1-2.5
	l-1.3-0.6v-5.1c0.1,0.1,0.4,0.1,0.6,0.1c0.8,0,1.6-0.6,1.8-1.3c0.4-1-0.1-2.1-1.1-2.5l-1.3-0.6v-5.4c0.1,0.1,0.4,0.1,0.6,0.1
	c0.8,0,1.6-0.6,1.8-1.3c0.4-1-0.1-2.1-1.1-2.5l-1.3-0.6v-5.4c0.1,0.1,0.4,0.1,0.6,0.1c0.8,0,1.6-0.4,1.8-1.3c0.4-1-0.1-2.1-1.1-2.5
	l-1.3-0.6v-5.4c0.1,0.1,0.4,0.1,0.6,0.1c0.8,0,1.6-0.6,1.8-1.3c0.4-1-0.1-2.1-1.1-2.5l-1.3-0.6v-5.4c0.1,0.1,0.4,0.1,0.6,0.1
	c0.8,0,1.6-0.4,1.8-1.3c0.4-1-0.1-2.3-1.1-2.5l-1.3-0.6v-5.4c0.1,0.1,0.4,0.1,0.6,0.1c0.8,0,1.6-0.6,1.8-1.3c0.4-1-0.1-2.1-1.1-2.5
	l-1.3-0.6v-24.1l10.8-8.4c0.4-0.4,0.7-1,0.7-1.6v-4.4C481.1,184.4,480.1,183.6,479.1,183.6z M465.6,357.2c0,7.9-3.1,12.9-5,15.3
	c-2-2.4-5-7.4-5-15.3v-9.5l5,1.8c0.3,0.1,0.4,0.1,0.7,0.1c0.8,0,1.6-0.6,1.8-1.3c0.4-1-0.1-2.1-1.1-2.5l-6.2-2.4v-5.4l10.1,3.8
	L465.6,357.2L465.6,357.2z M465.6,337.8l-10.1-3.8v-5.4l10.1,3.7V337.8z M465.6,328.2l-10.1-3.7v-5.4l10.1,3.7V328.2z M465.6,318.6
	l-10.1-3.8v-5.4l10.1,3.8V318.6z M465.6,308.9l-10.1-3.7v-5.4l10.1,3.8V308.9z M465.6,299.4l-10.1-3.8v-5.4l10.1,3.8V299.4z
	 M465.6,289.8l-10.1-3.7v-5.4l10.1,3.7V289.8z M465.6,280.2l-10.1-3.8V271l10.1,3.8V280.2z M465.6,270.7l-10.1-3.8v-5.4l10.1,3.7
	V270.7z M465.6,261.1l-10.1-3.8v-5.4l10.1,3.8V261.1z M465.6,251.4l-10.1-3.8v-5.4l10.1,3.7V251.4z M465.6,241.8l-10.1-3.8v-5.4
	l10.1,3.8V241.8z M465.6,232.3l-10.1-3.8v-5.4l10.1,3.7V232.3z M477,189l-10.8,8.4c-0.4,0.4-0.7,1-0.7,1.6v23.8l-10.1-3.7v-5.4
	l3.7,1.4c0.3,0.1,0.4,0.1,0.7,0.1c0.8,0,1.6-0.6,1.8-1.3c0.4-1-0.1-2.1-1.1-2.5l-5.2-2v-10.5c0-0.6-0.3-1.1-0.7-1.6l-10.8-8.4v-1.4
	h33L477,189L477,189z"/>
<path fill="#F7941E" d="M48,323.8c-4-6.1-6.8-10.6-8-13.8c-1.1-2.8-1-5.9-0.6-7.7c0.6-2.4,2.1-4.1,4.6-5.5
	c2.4-1.2,35.3-19.5,40.4-22.5l1.3-0.7c6.9-4,25-14.7,33.8-20.6c9.6-6.5,37.8-26.7,45.4-32.2c5.2-3.8,16.3-11.5,33-22.4
	c5.6-3.7,16.1-9.7,23.6-14.1c3.7-2.1,6.8-3.9,8.5-4.9c2.1-1.2,3.9-2.2,5.5-3.3c2.5-1.4,4.7-2.7,6.5-4c2.1-1.4,4-1.3,5.4-0.8
	c7.3-4.4,45-27.3,50.1-30.8c2-1.3,4.8-3.3,7.8-5.3c5.8-3.8,12.3-8.3,16.6-11.5c3.6-2.7,9.2-7.5,14.4-11.6c4.2-3.5,7.9-6.5,10-8
	c2.7-2.1,6.2-4.5,9.3-6.6c1.4-0.9,2.6-1.7,3.5-2.5c-0.2-1.7,0.2-3.7,2.4-5.6c0.5-0.3,1.2-0.9,2.2-1.6c3.6-2.7,10.3-8,13.4-11.2
	c5.4-5.5,6.7-9.2,4.3-12.9c-2.2-3.4-10.1-7.7-13.5-9.6c-4.5-2.4-9.9-4.6-17.3-6.9c-9.9-3-22.8-6.5-25.9-6.9
	c-3.5-0.4-7.1-1.9-8.5-3.1c-1.6-1.3-2.1-2.9-1.6-4.5c0.3-0.9,1.1-1.9,3-2.5c3.1-1,9.1-0.9,10.7-0.9c2.2,0,21.2,0.4,35,2.4
	c13.1,1.9,19.9,3,31.5,8.3c13.1,5.9,24.2,14.4,31.6,24c1.1,1.4,2.5,3.5,4.2,6.2c5.5,8.4,12.3,20.1,14,23.6c1.6,3.6,1.5,6.7,1.4,9.3
	c0,1.3-0.1,2.4,0.1,3.4c1.4,7.9,2.4,10.8,2.9,11.7c0.5,1,1.2,2.3,2,3.5c1.5,2.3,3.1,4.1,4.2,5c0.4,0.3,1.2,0.7,1.7,1
	c1.9,1.1,4.4,2.3,5.8,4.2c0.6,0.9,1.4,1.9,2.1,2.9c2.4,3.6,5.4,8.7,6.5,11c1.4,3.2-0.4,7.1-5.3,10.8c-2.6,2.1-7.3,5.2-11.5,7.4
	c-4.5,2.4-12.3,5.2-14.5,5.6c-3,0.6-5.9-0.4-7.3-2.7c-1.2-1.8-7.3-12.2-8.4-14.7c-0.7-1.5-0.6-3.2-0.7-4.9c0-0.5,0.1-1,0-1.4
	c-0.1-1.5-0.6-5.3-2.2-9c-1.4-3.5-3.1-7.5-5.3-10.7l-0.7-1.1c-2.1-3.1-3.6-5-5.5-4.8c-3.5,0.4-5.3,0.6-10.2,3.1
	c-2.7,1.4-5.5,2.9-8,4.2c-2.2,1.1-4,2.1-5.1,2.6c-1.9,0.9-3.7,0.4-4.9,0c-2.4,1.6-8,5.3-12.1,7.6c-2.1,1.2-5.9,3.3-10.5,5.6
	c-7,3.7-14.8,8-18.3,10.3c-2.4,1.6-5.7,3.6-9.3,5.8c-5.1,3.2-10.9,6.6-14.9,9.3c-6.5,4.3-38.1,27.1-48.6,34.7
	c0.2,1.5-0.4,3.2-2.3,4.4c-3,2-8.7,5.9-12.4,8.9c-3.6,2.7-22.1,16.5-28.4,20.9c-6.2,4.2-25.1,17.2-33.1,22
	c-2.8,1.7-8.8,5.4-15.7,9.4c-13,7.8-29.2,17.6-32.4,19.7c-4.8,3-25.9,17.9-32.9,23.1c-6.6,4.9-32.6,25.2-36.3,28.2
	c-4.2,3.5-7,4.1-10.7,2.2c-3.1-1.5-5.7-4.5-7.7-7.3c-0.5-0.8-1.1-1.4-1.8-2.2C52.8,330.6,51,328.3,48,323.8z M245.6,175.3
	c-0.1-0.1-0.7,0.3-1,0.5c-2.1,1.4-4.3,2.7-6.9,4.2c-1.7,0.9-3.5,2-5.4,3.2c-1.6,1.1-4.8,2.8-8.6,4.9c-7.6,4.3-17.8,10.3-23.3,13.9
	c-16.6,11-27.7,18.4-32.7,22.3c-7.7,5.8-35.7,25.6-45.4,32.4c-8.8,6-27.2,16.8-34,20.8l-1.3,0.7c-5.4,3.2-38.2,21.4-40.6,22.6
	c-1.7,0.9-2.1,1.9-2.4,2.6c-0.3,1.1-0.2,3.2,0.5,5.1c1.1,2.7,3.8,7.2,7.6,12.9c2.8,4.3,4.5,6.3,6.1,8.2c0.7,0.8,1.2,1.5,1.9,2.3
	c1.7,2.3,3.9,4.8,6.1,6c1.6,0.8,2.4,1.3,6-1.6c3.7-3.1,29.9-23.5,36.6-28.4c6.4-4.7,27.9-20,33.1-23.3c3.3-2.1,19.4-11.9,32.4-19.7
	c6.9-4.2,13-7.8,15.7-9.4c7.8-4.8,26.7-17.6,32.8-21.8c5.9-4.1,24.2-17.7,28.3-20.8c4-3,9.6-6.9,12.7-9.1c0.1-0.1,0.1-0.1,0.3-0.2
	c-0.5-0.4-0.6-0.9-0.4-1.5c0-0.7,0.5-1.2,1.1-1.6c8.6-6.4,43.2-31.1,50.1-35.7c4.1-2.7,9.9-6.2,15-9.3c3.6-2.2,6.9-4.2,9.3-5.8
	c3.6-2.4,11.6-6.6,18.8-10.4c4.3-2.3,8.4-4.4,10.3-5.7c5-3,12.8-8.3,13-8.4c0.8-0.5,1.8-0.5,2.6,0.1c0.4,0.3,1.2,0.7,1.7,0.5
	c1.1-0.5,2.8-1.5,5-2.5c2.4-1.2,5.3-2.8,8-4.2c5.4-2.7,7.9-3.2,11.9-3.5c4.8-0.3,7.6,4,9.5,6.8l0.7,1.1c2.4,3.6,4.2,7.7,5.7,11.3
	c1.7,4.2,2.4,8.6,2.5,10.6c0,0.5,0,1.1,0,1.6c0,1.1,0,2.5,0.2,3.1c0.9,2.1,6.8,12.2,8,14.1c0.7,1.1,2.1,1,2.7,0.9
	c1.6-0.3,8.9-2.8,13.2-5.1c4.3-2.3,8.8-5.4,10.8-7c2.7-2.1,4.3-4.3,3.9-5.5c-0.9-1.9-3.9-7-6.1-10.3c-0.7-1.1-1.4-2.1-1.9-2.5
	c-0.9-1.2-2.9-2.2-4.3-3.1c-0.9-0.5-1.7-0.9-2.3-1.3c-2.1-1.5-4.2-4.4-5.2-6.1c-1-1.5-1.7-2.8-2.3-4c-1.1-2.2-2-6.4-3.1-12.9
	c-0.2-1.5-0.3-2.9-0.1-4.2c0.1-2.4,0.1-4.7-1.1-7.2c-1.6-3.5-8.5-15.1-13.7-23.1c-1.6-2.5-3-4.6-4.1-5.9c-7-9-17.7-17.1-30-22.6
	c-11.1-5.1-17.7-6.1-30.3-8.1c-13.5-2-32.4-2.3-34.4-2.4c-2.9-0.1-6.6,0-8.6,0.5c1.3,0.9,3.7,2.4,5.6,2.6c2.5,0.3,15.8,2.7,26.8,6.1
	c7.7,2.5,13.3,4.7,18.1,7.3c6.3,3.6,12.5,7.2,14.9,11c5.4,8.3-2.3,16.1-4.8,18.6c-3.3,3.4-10,8.5-13.9,11.6c-0.8,0.7-1.5,1.2-2,1.5
	c-0.7,0.6-1,1.2-0.7,1.7c0.7,1,0.4,2.2-0.6,2.9c-1.2,0.9-2.9,2.1-4.9,3.4c-3,2.2-6.6,4.5-9,6.5c-1.9,1.4-5.7,4.7-9.9,7.9
	c-5.1,4.3-10.8,8.9-14.5,11.7c-4.4,3.4-11,7.8-16.8,11.8c-3,2-5.8,3.8-7.7,5.2c-5.7,3.9-49.7,30.6-51.4,31.7
	c-0.5,0.3-1.1,0.5-1.6,0.3C247,176.1,245.9,175.8,245.6,175.3z"/>
<path fill="#F7941E" d="M573.1,359.5H212.5c-1.2,0-2.1-1-2.1-2.1c0-1.2,1-2.1,2.1-2.1h360.6c1.2,0,2.1,1,2.1,2.1
	C575.2,358.6,574.3,359.5,573.1,359.5z"/>
</svg>
