<?xml version="1.0" encoding="utf-8"?>
<!-- Generator: Adobe Illustrator 18.0.0, SVG Export Plug-In . SVG Version: 6.00 Build 0)  -->
<!DOCTYPE svg PUBLIC "-//W3C//DTD SVG 1.1//EN" "http://www.w3.org/Graphics/SVG/1.1/DTD/svg11.dtd">
<svg version="1.1" id="Layer_1" xmlns="http://www.w3.org/2000/svg" xmlns:xlink="http://www.w3.org/1999/xlink" x="0px" y="0px"
	 viewBox="0 0 475 250.2" enable-background="new 0 0 475 250.2" xml:space="preserve">
<rect x="65.1" y="36.1" opacity="0.16" fill="#FCB31C" width="364.6" height="5.7"/>
<rect x="65.1" y="36.1" opacity="0.38" fill="#FCB31C" width="320.7" height="5.7"/>
<rect x="65.1" y="105.6" opacity="0.16" fill="#FCB31C" width="364.6" height="5.7"/>
<rect x="65.1" y="105.6" opacity="0.38" fill="#FCB31C" width="215.3" height="5.7"/>
<rect x="65.1" y="176" opacity="0.16" fill="#FCB31C" width="364.6" height="5.7"/>
<rect x="65.1" y="176" opacity="0.38" fill="#FCB31C" width="131.1" height="5.7"/>
<rect x="65.1" y="244.5" opacity="0.16" fill="#FCB31C" width="364.6" height="5.7"/>
<rect x="65.1" y="244.5" opacity="0.38" fill="#FCB31C" width="162.7" height="5.7"/>
<g>
	<path fill="#014F77" d="M378.2,28c-1.5,0-2.5-1.2-2.5-2.7c0-1.8,1.3-2.8,2.5-2.8c1.2,0,2.4,1,2.4,2.8C380.6,26.7,379.7,28,378.2,28
		 M375.8,27.9c0.6,0.7,1.4,1.2,2.6,1.2c2.2,0,3.5-1.8,3.5-3.9c0-2-1.3-3.9-3.6-3.9c-0.5,0-1.7,0.1-2.5,1.2v-1h-1.3V33h1.3V27.9z
		 M368.7,22.5c1.4,0,2.6,0.9,2.6,2.8c0,1.8-1.3,2.7-2.6,2.7c-1.3,0-2.6-0.9-2.6-2.7C366.1,23.4,367.3,22.5,368.7,22.5 M368.7,29.1
		c2.2,0,3.9-1.6,3.9-3.9c0-2.2-1.7-3.9-3.9-3.9s-3.9,1.7-3.9,3.9C364.8,27.5,366.4,29.1,368.7,29.1 M364.1,22.7v-1.2h-1.3v-2.7h-1.3
		v2.7h-0.8v1.2h0.8v6.2h1.3v-6.2H364.1z M355.8,28c-1.5,0-2.5-1.2-2.5-2.7c0-1.8,1.3-2.8,2.5-2.8s2.4,1,2.4,2.8
		C358.2,26.7,357.3,28,355.8,28 M353.4,27.9c0.6,0.7,1.4,1.2,2.6,1.2c2.2,0,3.5-1.8,3.5-3.9c0-2-1.3-3.9-3.6-3.9
		c-0.5,0-1.7,0.1-2.5,1.2v-1h-1.3V33h1.3V27.9z M346.1,22.5c1.1,0,2.5,0.8,2.5,2.7c0,1.5-0.9,2.8-2.5,2.8c-1.5,0-2.4-1.2-2.4-2.8
		C343.7,23.4,344.9,22.5,346.1,22.5 M348.5,22.5c-0.3-0.4-1.1-1.2-2.5-1.2c-1.9,0-3.6,1.3-3.6,3.9c0,2.6,1.7,3.9,3.6,3.9
		c1.3,0,2.1-0.7,2.5-1.2v1h1.3v-7.4h-1.3V22.5z M339.2,28.9h1.3v-13h-1.3V28.9z M329.8,28.9h1.3V25c0-1.2,0.2-1.7,0.4-2
		c0.2-0.2,0.5-0.5,1-0.5c0.2,0,0.5,0.1,0.7,0.2l0.6-1.2c-0.3-0.2-0.7-0.3-1.1-0.3c-1,0-1.6,0.8-1.7,1v-0.8h-1.3V28.9z M323.9,22.5
		c1.4,0,2.6,0.9,2.6,2.8c0,1.8-1.3,2.7-2.6,2.7c-1.3,0-2.6-0.9-2.6-2.7C321.3,23.4,322.6,22.5,323.9,22.5 M323.9,29.1
		c2.2,0,3.9-1.6,3.9-3.9c0-2.2-1.7-3.9-3.9-3.9S320,23,320,25.2C320,27.5,321.7,29.1,323.9,29.1 M314.2,18c-1.4-1.1-2.8-1.2-3.5-1.2
		c-3.6,0-6.2,2.6-6.2,6.2c0,3.4,2.6,6.1,6.2,6.1c0.9,0,2.3-0.2,3.6-1.2v-1.6c-0.2,0.2-0.7,0.7-1.4,1c-0.6,0.3-1.4,0.6-2.2,0.6
		c-2.2,0-4.8-1.6-4.8-4.9c0-2.7,2-5,4.8-5c0.7,0,1.4,0.2,2.1,0.5c0.6,0.3,1.2,0.7,1.6,1.1V18z M298.3,18.2h1c0.9,0,2.6,0.2,2.6,2.1
		c0,1.4-0.9,2.2-2.5,2.2h-1.1V18.2z M296.9,17v11.9h1.3v-5.2h1.2c2.7,0,3.8-1.7,3.8-3.3c0-0.7-0.2-1.8-1.1-2.6
		c-0.8-0.7-1.8-0.8-3-0.8H296.9z M284.8,24.4c0.2-1.1,1.1-1.9,2.2-1.9c1.1,0,2,0.8,2.2,1.9H284.8z M289.4,26.4
		c-0.2,0.4-0.4,0.7-0.8,1c-0.4,0.4-0.9,0.5-1.5,0.5c-1.3,0-2.3-1-2.4-2.5h5.8c0-1-0.2-2.1-0.7-2.8c-0.4-0.6-1.4-1.4-2.8-1.4
		c-2.2,0-3.6,1.7-3.6,3.9c0,2.7,1.9,3.9,3.7,3.9c0.9,0,1.8-0.3,2.5-0.9c0.4-0.3,0.7-0.8,0.9-1.2L289.4,26.4z M275.6,28.9h1.3V25
		c0-0.5,0-1.4,0.5-2c0.4-0.4,0.9-0.6,1.3-0.6c0.6,0,1,0.2,1.2,0.5c0.3,0.4,0.3,0.9,0.3,1.4v4.5h1.3v-4.6c0-0.8-0.1-1.4-0.4-2
		c-0.4-0.7-1.2-1-2.1-1c-1.2,0-1.9,0.7-2.1,1v-0.9h-1.3V28.9z M269.8,22.5c1.4,0,2.6,0.9,2.6,2.8c0,1.8-1.3,2.7-2.6,2.7
		c-1.3,0-2.6-0.9-2.6-2.7C267.2,23.4,268.4,22.5,269.8,22.5 M269.8,29.1c2.2,0,3.9-1.6,3.9-3.9c0-2.2-1.7-3.9-3.9-3.9
		s-3.9,1.7-3.9,3.9C265.8,27.5,267.5,29.1,269.8,29.1 M260.9,22.7v-1.2h-1.3v-2.7h-1.3v2.7h-0.8v1.2h0.8v6.2h1.3v-6.2H260.9z
		 M256.2,22.6c-0.6-1.3-1.6-1.3-2-1.3c-1.2,0-2.2,0.8-2.2,2.1c0,0.4,0.1,0.7,0.3,1.1c0.3,0.4,0.9,0.7,1.8,1.1
		c0.7,0.3,1.2,0.5,1.2,1.2c0,0.6-0.4,1.2-1.2,1.2c-0.9,0-1.4-0.8-1.5-1.2l-1.1,0.5c0.6,1.9,2.3,1.9,2.6,1.9c1.4,0,2.6-0.9,2.6-2.4
		c0-0.4-0.1-0.8-0.4-1.2c-0.3-0.4-0.8-0.7-1.9-1.1c-0.8-0.4-1.2-0.5-1.2-1.1c0-0.6,0.4-0.8,0.9-0.8c0.5,0,0.9,0.3,1,0.7L256.2,22.6z
		 M246.1,22.5c1.1,0,2.5,0.8,2.5,2.7c0,1.5-0.9,2.8-2.5,2.8c-1.5,0-2.4-1.2-2.4-2.8C243.7,23.4,244.8,22.5,246.1,22.5 M248.5,22.5
		c-0.3-0.4-1.1-1.2-2.5-1.2c-1.9,0-3.6,1.3-3.6,3.9c0,2.6,1.7,3.9,3.6,3.9c1.3,0,2.1-0.7,2.5-1.2v1h1.3v-7.4h-1.3V22.5z M235.2,24.4
		c0.2-1.1,1.1-1.9,2.2-1.9c1.1,0,2,0.8,2.2,1.9H235.2z M239.8,26.4c-0.2,0.4-0.4,0.7-0.8,1c-0.4,0.4-0.9,0.5-1.5,0.5
		c-1.3,0-2.3-1-2.4-2.5h5.8c0-1-0.2-2.1-0.7-2.8c-0.4-0.6-1.4-1.4-2.8-1.4c-2.2,0-3.6,1.7-3.6,3.9c0,2.7,1.9,3.9,3.7,3.9
		c0.9,0,1.8-0.3,2.5-0.9c0.4-0.3,0.7-0.8,0.9-1.2L239.8,26.4z M230.6,28.9h1.3v-13h-1.3V28.9z M225.3,22.7v-1.2H224v-2.7h-1.3v2.7
		h-0.8v1.2h0.8v6.2h1.3v-6.2H225.3z M216.5,22.5c1.1,0,2.5,0.8,2.5,2.7c0,1.5-0.9,2.8-2.5,2.8c-1.5,0-2.4-1.2-2.4-2.8
		C214.1,23.4,215.3,22.5,216.5,22.5 M218.9,22.5c-0.3-0.4-1.1-1.2-2.5-1.2c-1.9,0-3.6,1.3-3.6,3.9c0,2.6,1.7,3.9,3.6,3.9
		c1.3,0,2.1-0.7,2.5-1.2v1h1.3v-7.4h-1.3V22.5z M203.2,22.5c1.4,0,2.6,0.9,2.6,2.8c0,1.8-1.3,2.7-2.6,2.7c-1.3,0-2.6-0.9-2.6-2.7
		C200.6,23.4,201.9,22.5,203.2,22.5 M203.2,29.1c2.2,0,3.9-1.6,3.9-3.9c0-2.2-1.7-3.9-3.9-3.9c-2.3,0-3.9,1.7-3.9,3.9
		C199.3,27.5,201,29.1,203.2,29.1 M198.6,22.7v-1.2h-1.3v-2.7h-1.3v2.7h-0.8v1.2h0.8v6.2h1.3v-6.2H198.6z M189.7,22.6
		c-0.6-1.3-1.6-1.3-2-1.3c-1.2,0-2.2,0.8-2.2,2.1c0,0.4,0.1,0.7,0.3,1.1c0.3,0.4,0.9,0.7,1.8,1.1c0.7,0.3,1.2,0.5,1.2,1.2
		c0,0.6-0.4,1.2-1.2,1.2c-0.9,0-1.4-0.8-1.5-1.2l-1.1,0.5c0.6,1.9,2.3,1.9,2.6,1.9c1.4,0,2.6-0.9,2.6-2.4c0-0.4-0.1-0.8-0.4-1.2
		c-0.3-0.4-0.8-0.7-1.9-1.1c-0.8-0.4-1.2-0.5-1.2-1.1c0-0.6,0.4-0.8,0.9-0.8c0.5,0,0.9,0.3,1,0.7L189.7,22.6z M183.3,22.6
		c-0.6-1.3-1.6-1.3-2-1.3c-1.2,0-2.2,0.8-2.2,2.1c0,0.4,0.1,0.7,0.3,1.1c0.3,0.4,0.9,0.7,1.8,1.1c0.7,0.3,1.2,0.5,1.2,1.2
		c0,0.6-0.4,1.2-1.2,1.2c-0.9,0-1.4-0.8-1.5-1.2l-1.1,0.5c0.6,1.9,2.3,1.9,2.6,1.9c1.4,0,2.6-0.9,2.6-2.4c0-0.4-0.1-0.8-0.4-1.2
		c-0.3-0.4-0.8-0.7-1.9-1.1c-0.8-0.4-1.2-0.5-1.2-1.1c0-0.6,0.4-0.8,0.9-0.8c0.5,0,0.9,0.3,1,0.7L183.3,22.6z M171.6,24.4
		c0.2-1.1,1.1-1.9,2.2-1.9c1.1,0,2,0.8,2.2,1.9H171.6z M176.2,26.4c-0.2,0.4-0.4,0.7-0.8,1c-0.4,0.4-0.9,0.5-1.5,0.5
		c-1.3,0-2.3-1-2.4-2.5h5.8c0-1-0.2-2.1-0.7-2.8c-0.4-0.6-1.4-1.4-2.8-1.4c-2.2,0-3.6,1.7-3.6,3.9c0,2.7,1.9,3.9,3.7,3.9
		c0.9,0,1.8-0.3,2.5-0.9c0.4-0.3,0.7-0.8,0.9-1.2L176.2,26.4z M168.7,22c-0.4-0.2-1.1-0.7-2.3-0.7c-2.3,0-4,1.7-4,3.9
		c0,2.2,1.7,3.9,4,3.9c0.7,0,1.6-0.2,2.4-0.8v-1.5c-0.7,0.8-1.6,1.2-2.4,1.2c-1.3,0-2.6-0.9-2.6-2.7c0-1.8,1.2-2.8,2.6-2.8
		c0.7,0,1.6,0.2,2.3,1.1V22z M161,22c-0.4-0.2-1.1-0.7-2.3-0.7c-2.3,0-4,1.7-4,3.9c0,2.2,1.7,3.9,4,3.9c0.7,0,1.6-0.2,2.4-0.8v-1.5
		c-0.7,0.8-1.6,1.2-2.4,1.2c-1.3,0-2.6-0.9-2.6-2.7c0-1.8,1.2-2.8,2.6-2.8c0.7,0,1.6,0.2,2.3,1.1V22z M149.2,22.5
		c1.1,0,2.5,0.8,2.5,2.7c0,1.5-0.9,2.8-2.5,2.8c-1.5,0-2.4-1.2-2.4-2.8C146.8,23.4,147.9,22.5,149.2,22.5 M151.6,22.5
		c-0.3-0.4-1.1-1.2-2.5-1.2c-1.9,0-3.6,1.3-3.6,3.9c0,2.6,1.7,3.9,3.6,3.9c1.3,0,2.1-0.7,2.5-1.2v1h1.3v-7.4h-1.3V22.5z M134.1,24.4
		c0.2-1.1,1.1-1.9,2.2-1.9s2,0.8,2.2,1.9H134.1z M138.7,26.4c-0.2,0.4-0.4,0.7-0.8,1c-0.4,0.4-0.9,0.5-1.5,0.5c-1.3,0-2.3-1-2.4-2.5
		h5.8c0-1-0.2-2.1-0.7-2.8c-0.4-0.6-1.4-1.4-2.8-1.4c-2.2,0-3.6,1.7-3.6,3.9c0,2.7,1.9,3.9,3.7,3.9c0.9,0,1.8-0.3,2.5-0.9
		c0.4-0.3,0.7-0.8,0.9-1.2L138.7,26.4z M124.9,21.5l3.6,7.9l3.6-7.9h-1.4l-2.2,5l-2.2-5H124.9z M119.8,22.5c1.1,0,2.5,0.8,2.5,2.7
		c0,1.5-0.9,2.8-2.5,2.8c-1.5,0-2.4-1.2-2.4-2.8C117.4,23.4,118.6,22.5,119.8,22.5 M122.2,22.5c-0.3-0.4-1.1-1.2-2.5-1.2
		c-1.9,0-3.6,1.3-3.6,3.9c0,2.6,1.7,3.9,3.6,3.9c1.3,0,2.1-0.7,2.5-1.2v1h1.3v-7.4h-1.3V22.5z M108.2,28.9h1.3V25c0-0.5,0-1.4,0.5-2
		c0.4-0.4,0.9-0.6,1.3-0.6c0.6,0,1,0.2,1.2,0.5c0.3,0.4,0.3,0.9,0.3,1.4v4.5h1.3v-4.6c0-0.8-0.1-1.4-0.4-2c-0.4-0.7-1.2-1-2.1-1
		c-1.2,0-1.9,0.7-2.1,1v-6.5h-1.3V28.9z"/>
	<path fill="#39A6B2" d="M93.1,19.2c1.7,0,2.9,1.4,2.9,3.3c0,1.9-1.2,3.2-2.9,3.2c-1.7,0-2.9-1.3-2.9-3.2
		C90.3,20.6,91.4,19.2,93.1,19.2 M93.1,15.4c-3.9,0-7.2,3.1-7.2,7c0,3.9,3.3,7,7.2,7c3.9,0,7.2-3.1,7.2-7
		C100.3,18.5,97,15.4,93.1,15.4 M72.3,29.7c2.2-2.6,8.2-9.4,12.6-14.1c4.5-4.7,10.6-10.9,13.2-13.4L95.9,0c-2.2,2.6-8.3,9.4-12.7,14
		c-4.4,4.7-10.6,10.9-13.2,13.5L72.3,29.7z M75.1,10.6c-1.7,0-2.9-1.3-2.9-3.2c0-1.9,1.2-3.3,2.9-3.3c1.7,0,2.9,1.4,2.9,3.3
		C78,9.3,76.8,10.6,75.1,10.6 M75.1,14.3c3.9,0,7.2-3.1,7.2-7c0-3.9-3.3-7-7.2-7s-7.2,3.1-7.2,7C67.9,11.2,71.2,14.3,75.1,14.3
		 M51.2,24.5c-4.4,0-7.4-4.1-7.4-9.6c0-5.5,3-9.6,7.4-9.6s7.4,4.1,7.4,9.6C58.6,20.4,55.6,24.5,51.2,24.5 M51.2,29.3
		c7.8,0,13.4-6.2,13.4-14.4S59,0.4,51.2,0.4S37.8,6.6,37.8,14.9S43.5,29.3,51.2,29.3 M25.1,7.1c1.2,1.1,2,2.7,2,4.4
		c0,3.5-3.2,6.3-7.2,6.3s-6.6-2.7-6.6-6c0-3.5,2.9-6.5,6.9-6.5C22.1,5.2,23.9,5.9,25.1,7.1 M18.6,35.7c7.9,0,14.7-6.9,14.7-19.5
		c0-5.6-1.6-9.8-4.2-12.5c-2.2-2.2-5.2-3.3-8.8-3.3c-7.4,0-12.8,5-12.8,11.3c0,6.1,5.1,10.8,12,10.8c3.6,0,6.8-1.8,8.2-4
		c-0.2,8.2-4.9,12.3-8.5,12.3c-1.2,0-2.2-0.2-3-0.5c0.1-0.4,0.2-0.8,0.2-1.2c0-1.9-1.6-3.6-3.9-3.6c-1.9,0-3.6,1.7-3.6,3.9
		c0,1.3,0.5,2.5,1.4,3.4C12,34.6,15,35.7,18.6,35.7"/>
	<path fill="#014F77" d="M377.2,92.3c1.1,0,2.5,0.8,2.5,2.7c0,1.5-0.9,2.8-2.5,2.8c-1.5,0-2.4-1.2-2.4-2.8
		C374.8,93.2,376,92.3,377.2,92.3 M379.6,92.4c-0.3-0.4-1.1-1.2-2.5-1.2c-1.9,0-3.6,1.3-3.6,3.9c0,2.6,1.7,3.9,3.6,3.9
		c1.3,0,2.1-0.7,2.5-1.2v1h1.3v-13h-1.3V92.4z M368.9,98.7h1.3v-3.9c0-1.2,0.2-1.7,0.4-2c0.2-0.2,0.5-0.5,1-0.5
		c0.2,0,0.5,0.1,0.7,0.2l0.6-1.2c-0.3-0.2-0.7-0.3-1.1-0.3c-1,0-1.6,0.8-1.7,1v-0.8h-1.3V98.7z M362.9,92.3c1.1,0,2.5,0.8,2.5,2.7
		c0,1.5-0.9,2.8-2.5,2.8c-1.5,0-2.4-1.2-2.4-2.8C360.5,93.2,361.6,92.3,362.9,92.3 M365.3,92.4c-0.3-0.4-1.1-1.2-2.5-1.2
		c-1.9,0-3.6,1.3-3.6,3.9c0,2.6,1.7,3.9,3.6,3.9c1.3,0,2.1-0.7,2.5-1.2v1h1.3v-7.4h-1.3V92.4z M353.8,92.3c1.4,0,2.6,0.9,2.6,2.8
		c0,1.8-1.3,2.7-2.6,2.7c-1.3,0-2.6-0.9-2.6-2.7C351.2,93.3,352.4,92.3,353.8,92.3 M353.8,99c2.2,0,3.9-1.6,3.9-3.9
		c0-2.2-1.7-3.9-3.9-3.9c-2.3,0-3.9,1.7-3.9,3.9C349.8,97.3,351.5,99,353.8,99 M344.6,97.8c-1.5,0-2.5-1.2-2.5-2.7
		c0-1.8,1.3-2.8,2.5-2.8c1.2,0,2.4,1,2.4,2.8C347,96.6,346.1,97.8,344.6,97.8 M342.2,97.7c0.6,0.7,1.4,1.2,2.6,1.2
		c2.2,0,3.5-1.8,3.5-3.9c0-2-1.3-3.9-3.6-3.9c-0.5,0-1.7,0.1-2.5,1.2v-6.6h-1.3v13h1.3V97.7z M333.4,94.2c0.2-1.1,1.1-1.9,2.2-1.9
		c1.1,0,2,0.8,2.2,1.9H333.4z M337.9,96.3c-0.2,0.4-0.4,0.7-0.8,1c-0.4,0.4-0.9,0.5-1.5,0.5c-1.3,0-2.3-1-2.4-2.5h5.8
		c0-1-0.2-2.1-0.7-2.8c-0.4-0.6-1.4-1.4-2.8-1.4c-2.2,0-3.6,1.7-3.6,3.9c0,2.7,1.9,3.9,3.7,3.9c0.9,0,1.8-0.3,2.5-0.9
		c0.4-0.3,0.7-0.8,0.9-1.2L337.9,96.3z M331.3,92.5v-1.2H330v-2.7h-1.3v2.7h-0.8v1.2h0.8v6.2h1.3v-6.2H331.3z M324.7,88.5
		c0,0.5,0.4,0.9,0.9,0.9c0.5,0,0.9-0.4,0.9-0.9s-0.4-0.9-0.9-0.9C325.1,87.6,324.7,88,324.7,88.5 M325,98.7h1.3v-7.4H325V98.7z
		 M316.7,98.7h1.3v-3.9c0-0.5,0-1.4,0.5-2c0.4-0.4,0.9-0.6,1.3-0.6c0.6,0,1,0.2,1.2,0.5c0.3,0.4,0.3,0.9,0.3,1.4v4.5h1.3v-4.6
		c0-0.8-0.1-1.4-0.4-2c-0.4-0.7-1.2-1-2.1-1c-1.2,0-1.9,0.7-2.1,1v-6.5h-1.3V98.7z M303.5,91.3l3.6,7.9l2.3-5.5l2.3,5.5l3.7-7.9
		h-1.4l-2.2,5l-2.3-5.6l-2.3,5.6l-2.2-5H303.5z M292.8,94.2c0.2-1.1,1.1-1.9,2.2-1.9s2,0.8,2.2,1.9H292.8z M297.3,96.3
		c-0.2,0.4-0.4,0.7-0.8,1c-0.4,0.4-0.9,0.5-1.5,0.5c-1.3,0-2.3-1-2.4-2.5h5.8c0-1-0.2-2.1-0.7-2.8c-0.4-0.6-1.4-1.4-2.8-1.4
		c-2.2,0-3.6,1.7-3.6,3.9c0,2.7,1.9,3.9,3.7,3.9c0.9,0,1.8-0.3,2.5-0.9c0.4-0.3,0.7-0.8,0.9-1.2L297.3,96.3z M283.5,91.3l3.6,7.9
		l3.6-7.9h-1.4l-2.2,5l-2.2-5H283.5z M280.6,88.5c0,0.5,0.4,0.9,0.9,0.9s0.9-0.4,0.9-0.9s-0.4-0.9-0.9-0.9S280.6,88,280.6,88.5
		 M280.9,98.7h1.3v-7.4h-1.3V98.7z M279.6,92.5v-1.2h-1.3v-2.7H277v2.7h-0.8v1.2h0.8v6.2h1.3v-6.2H279.6z M274.9,91.9
		c-0.4-0.2-1.1-0.7-2.3-0.7c-2.3,0-4,1.7-4,3.9c0,2.2,1.7,3.9,4,3.9c0.7,0,1.6-0.2,2.4-0.8v-1.5c-0.7,0.8-1.6,1.2-2.4,1.2
		c-1.3,0-2.6-0.9-2.6-2.7c0-1.8,1.2-2.8,2.6-2.8c0.7,0,1.6,0.2,2.3,1.1V91.9z M263.1,92.3c1.1,0,2.5,0.8,2.5,2.7
		c0,1.5-0.9,2.8-2.5,2.8c-1.5,0-2.4-1.2-2.4-2.8C260.6,93.2,261.8,92.3,263.1,92.3 M265.5,92.4c-0.3-0.4-1.1-1.2-2.5-1.2
		c-1.9,0-3.6,1.3-3.6,3.9c0,2.6,1.7,3.9,3.6,3.9c1.3,0,2.1-0.7,2.5-1.2v1h1.3v-7.4h-1.3V92.4z M254.7,98.7h1.3v-3.9
		c0-1.2,0.2-1.7,0.4-2c0.2-0.2,0.5-0.5,1-0.5c0.2,0,0.5,0.1,0.7,0.2l0.6-1.2c-0.3-0.2-0.7-0.3-1.1-0.3c-1,0-1.6,0.8-1.7,1v-0.8h-1.3
		V98.7z M247.2,94.2c0.2-1.1,1.1-1.9,2.2-1.9c1.1,0,2,0.8,2.2,1.9H247.2z M251.7,96.3c-0.2,0.4-0.4,0.7-0.8,1
		c-0.4,0.4-0.9,0.5-1.5,0.5c-1.3,0-2.3-1-2.4-2.5h5.8c0-1-0.2-2.1-0.7-2.8c-0.4-0.6-1.4-1.4-2.8-1.4c-2.2,0-3.6,1.7-3.6,3.9
		c0,2.7,1.9,3.9,3.7,3.9c0.9,0,1.8-0.3,2.5-0.9c0.4-0.3,0.7-0.8,0.9-1.2L251.7,96.3z M245.1,92.5v-1.2h-1.3v-2.7h-1.3v2.7h-0.8v1.2
		h0.8v6.2h1.3v-6.2H245.1z M234.2,98.7h1.3v-3.9c0-0.5,0-1.4,0.5-2c0.4-0.4,0.9-0.6,1.3-0.6c0.6,0,1,0.2,1.2,0.5
		c0.3,0.4,0.3,0.9,0.3,1.4v4.5h1.3v-4.6c0-0.8-0.1-1.4-0.4-2c-0.4-0.7-1.2-1-2.1-1c-1.2,0-1.9,0.7-2.1,1v-0.9h-1.3V98.7z
		 M230.3,88.5c0,0.5,0.4,0.9,0.9,0.9c0.5,0,0.9-0.4,0.9-0.9s-0.4-0.9-0.9-0.9C230.7,87.6,230.3,88,230.3,88.5 M230.6,98.7h1.3v-7.4
		h-1.3V98.7z M218,98.7h1.3v-3.9c0-0.5,0-1.4,0.5-2c0.4-0.4,0.9-0.6,1.3-0.6c0.6,0,1,0.2,1.2,0.5c0.3,0.4,0.3,0.9,0.3,1.4v4.5h1.3
		v-4.6c0-0.8-0.1-1.4-0.4-2c-0.4-0.7-1.2-1-2.1-1c-1.2,0-1.9,0.7-2.1,1v-0.9H218V98.7z M212,92.3c1.1,0,2.5,0.8,2.5,2.7
		c0,1.5-0.9,2.8-2.5,2.8c-1.5,0-2.4-1.2-2.4-2.8C209.6,93.2,210.8,92.3,212,92.3 M214.4,92.4c-0.3-0.4-1.1-1.2-2.5-1.2
		c-1.9,0-3.6,1.3-3.6,3.9c0,2.6,1.7,3.9,3.6,3.9c1.3,0,2.1-0.7,2.5-1.2v1h1.3v-7.4h-1.3V92.4z M198.7,92.3c1.4,0,2.6,0.9,2.6,2.8
		c0,1.8-1.3,2.7-2.6,2.7c-1.3,0-2.6-0.9-2.6-2.7C196.1,93.3,197.3,92.3,198.7,92.3 M198.7,99c2.2,0,3.9-1.6,3.9-3.9
		c0-2.2-1.7-3.9-3.9-3.9c-2.3,0-3.9,1.7-3.9,3.9C194.8,97.3,196.5,99,198.7,99 M194.1,92.5v-1.2h-1.3v-2.7h-1.3v2.7h-0.8v1.2h0.8
		v6.2h1.3v-6.2H194.1z M185.2,92.5c-0.6-1.3-1.6-1.3-2-1.3c-1.2,0-2.2,0.8-2.2,2.1c0,0.4,0.1,0.7,0.3,1.1c0.3,0.4,0.9,0.7,1.8,1.1
		c0.7,0.3,1.2,0.5,1.2,1.2c0,0.6-0.4,1.2-1.2,1.2c-0.9,0-1.4-0.8-1.5-1.2l-1.1,0.5c0.6,1.9,2.3,1.9,2.6,1.9c1.4,0,2.6-0.9,2.6-2.4
		c0-0.4-0.1-0.8-0.4-1.2c-0.3-0.4-0.8-0.7-1.9-1.1c-0.8-0.4-1.2-0.5-1.2-1.1c0-0.6,0.4-0.8,0.9-0.8c0.5,0,0.9,0.3,1,0.7L185.2,92.5z
		 M178.8,92.5c-0.6-1.3-1.6-1.3-2-1.3c-1.2,0-2.2,0.8-2.2,2.1c0,0.4,0.1,0.7,0.3,1.1c0.3,0.4,0.9,0.7,1.8,1.1
		c0.7,0.3,1.2,0.5,1.2,1.2c0,0.6-0.4,1.2-1.2,1.2c-0.9,0-1.4-0.8-1.5-1.2l-1.1,0.5c0.6,1.9,2.3,1.9,2.6,1.9c1.4,0,2.6-0.9,2.6-2.4
		c0-0.4-0.1-0.8-0.4-1.2c-0.3-0.4-0.8-0.7-1.9-1.1c-0.8-0.4-1.2-0.5-1.2-1.1c0-0.6,0.4-0.8,0.9-0.8c0.5,0,0.9,0.3,1,0.7L178.8,92.5z
		 M167.1,94.2c0.2-1.1,1.1-1.9,2.2-1.9c1.1,0,2,0.8,2.2,1.9H167.1z M171.6,96.3c-0.2,0.4-0.4,0.7-0.8,1c-0.4,0.4-0.9,0.5-1.5,0.5
		c-1.3,0-2.3-1-2.4-2.5h5.8c0-1-0.2-2.1-0.7-2.8c-0.4-0.6-1.4-1.4-2.8-1.4c-2.2,0-3.6,1.7-3.6,3.9c0,2.7,1.9,3.9,3.7,3.9
		c0.9,0,1.8-0.3,2.5-0.9c0.4-0.3,0.7-0.8,0.9-1.2L171.6,96.3z M164.2,91.9c-0.4-0.2-1.1-0.7-2.3-0.7c-2.3,0-4,1.7-4,3.9
		c0,2.2,1.7,3.9,4,3.9c0.7,0,1.6-0.2,2.4-0.8v-1.5c-0.7,0.8-1.6,1.2-2.4,1.2c-1.3,0-2.6-0.9-2.6-2.7c0-1.8,1.2-2.8,2.6-2.8
		c0.7,0,1.6,0.2,2.3,1.1V91.9z M156.5,91.9c-0.4-0.2-1.1-0.7-2.3-0.7c-2.3,0-4,1.7-4,3.9c0,2.2,1.7,3.9,4,3.9c0.7,0,1.6-0.2,2.4-0.8
		v-1.5c-0.7,0.8-1.6,1.2-2.4,1.2c-1.3,0-2.6-0.9-2.6-2.7c0-1.8,1.2-2.8,2.6-2.8c0.7,0,1.6,0.2,2.3,1.1V91.9z M144.7,92.3
		c1.1,0,2.5,0.8,2.5,2.7c0,1.5-0.9,2.8-2.5,2.8c-1.5,0-2.4-1.2-2.4-2.8C142.3,93.2,143.4,92.3,144.7,92.3 M147.1,92.4
		c-0.3-0.4-1.1-1.2-2.5-1.2c-1.9,0-3.6,1.3-3.6,3.9c0,2.6,1.7,3.9,3.6,3.9c1.3,0,2.1-0.7,2.5-1.2v1h1.3v-7.4h-1.3V92.4z M129.6,94.2
		c0.2-1.1,1.1-1.9,2.2-1.9c1.1,0,2,0.8,2.2,1.9H129.6z M134.2,96.3c-0.2,0.4-0.4,0.7-0.8,1c-0.4,0.4-0.9,0.5-1.5,0.5
		c-1.3,0-2.3-1-2.4-2.5h5.8c0-1-0.2-2.1-0.7-2.8c-0.4-0.6-1.4-1.4-2.8-1.4c-2.2,0-3.6,1.7-3.6,3.9c0,2.7,1.9,3.9,3.7,3.9
		c0.9,0,1.8-0.3,2.5-0.9c0.4-0.3,0.7-0.8,0.9-1.2L134.2,96.3z M120.3,91.3l3.6,7.9l3.6-7.9h-1.4l-2.2,5l-2.2-5H120.3z M115.3,92.3
		c1.1,0,2.5,0.8,2.5,2.7c0,1.5-0.9,2.8-2.5,2.8c-1.5,0-2.4-1.2-2.4-2.8C112.9,93.2,114,92.3,115.3,92.3 M117.7,92.4
		c-0.3-0.4-1.1-1.2-2.5-1.2c-1.9,0-3.6,1.3-3.6,3.9c0,2.6,1.7,3.9,3.6,3.9c1.3,0,2.1-0.7,2.5-1.2v1h1.3v-7.4h-1.3V92.4z M103.7,98.7
		h1.3v-3.9c0-0.5,0-1.4,0.5-2c0.4-0.4,0.9-0.6,1.3-0.6c0.6,0,1,0.2,1.2,0.5c0.3,0.4,0.3,0.9,0.3,1.4v4.5h1.3v-4.6
		c0-0.8-0.1-1.4-0.4-2c-0.4-0.7-1.2-1-2.1-1c-1.2,0-1.9,0.7-2.1,1v-6.5h-1.3V98.7z"/>
	<path fill="#39A6B2" d="M88.6,89c1.7,0,2.9,1.4,2.9,3.3c0,1.9-1.2,3.2-2.9,3.2c-1.7,0-2.9-1.3-2.9-3.2C85.7,90.4,86.9,89,88.6,89
		 M88.6,85.3c-3.9,0-7.2,3.1-7.2,7c0,3.9,3.3,7,7.2,7s7.2-3.1,7.2-7C95.8,88.4,92.5,85.3,88.6,85.3 M67.8,99.5
		c2.2-2.6,8.2-9.4,12.6-14.1c4.5-4.7,10.6-10.9,13.2-13.4l-2.2-2.2c-2.2,2.6-8.3,9.4-12.7,14c-4.4,4.7-10.6,10.9-13.2,13.5
		L67.8,99.5z M70.6,80.5c-1.7,0-2.9-1.3-2.9-3.2c0-1.9,1.2-3.3,2.9-3.3c1.7,0,2.9,1.4,2.9,3.3C73.5,79.2,72.3,80.5,70.6,80.5
		 M70.6,84.1c3.9,0,7.2-3.1,7.2-7c0-3.9-3.3-7-7.2-7c-3.9,0-7.2,3.1-7.2,7C63.4,81,66.7,84.1,70.6,84.1 M51.6,76.9
		c1.2,1.1,2,2.7,2,4.4c0,3.5-3.2,6.3-7.2,6.3s-6.6-2.7-6.6-6c0-3.5,2.9-6.5,6.9-6.5C48.6,75,50.3,75.8,51.6,76.9 M45,105.5
		c7.9,0,14.7-6.9,14.7-19.5c0-5.6-1.6-9.8-4.2-12.5c-2.2-2.2-5.2-3.3-8.8-3.3c-7.4,0-12.8,5-12.8,11.3c0,6.1,5.1,10.8,12,10.8
		c3.6,0,6.8-1.8,8.2-4c-0.2,8.2-4.9,12.3-8.5,12.3c-1.2,0-2.2-0.2-3-0.5c0.1-0.4,0.2-0.8,0.2-1.2c0-1.9-1.6-3.6-3.9-3.6
		c-1.9,0-3.6,1.7-3.6,3.9c0,1.3,0.5,2.5,1.4,3.4C38.5,104.5,41.5,105.5,45,105.5 M7.3,98.8c0,1.3,0.6,2.7,1.8,3.8
		c1.8,1.7,4.9,2.9,9.4,2.9c7.1,0,12.4-4.8,12.4-11.6c0-7.1-5.2-10.9-12.1-10.9c-1.6,0-3.3,0.2-4.5,0.5l0.9-7.5h13.9v-5.5H10.6
		L8.5,88.1l2.7,1.5c2-1.1,4.5-1.6,6.5-1.6c4.9,0,7.1,2.5,7.1,5.9c0,3.6-2.4,6.6-6.8,6.6c-1.6,0-2.9-0.2-4-0.5
		c0.3-0.5,0.5-1.2,0.5-1.7c0-1.9-1.6-3.5-3.5-3.5C8.9,94.8,7.3,96.5,7.3,98.8"/>
	<path fill="#014F77" d="M338.4,163.1c-0.6-1.3-1.6-1.3-2-1.3c-1.2,0-2.2,0.8-2.2,2.1c0,0.4,0.1,0.7,0.3,1.1
		c0.3,0.4,0.9,0.7,1.8,1.1c0.7,0.3,1.2,0.5,1.2,1.2c0,0.6-0.4,1.2-1.2,1.2c-0.9,0-1.4-0.8-1.5-1.2l-1.1,0.5c0.6,1.9,2.3,1.9,2.6,1.9
		c1.4,0,2.6-0.9,2.6-2.4c0-0.4-0.1-0.8-0.4-1.2c-0.3-0.4-0.8-0.7-1.9-1.1c-0.8-0.4-1.2-0.5-1.2-1.1c0-0.6,0.4-0.8,0.9-0.8
		c0.5,0,0.9,0.3,1,0.7L338.4,163.1z M329.1,169.3h1.3v-3.9c0-1.2,0.2-1.7,0.4-2c0.2-0.2,0.5-0.5,1-0.5c0.2,0,0.5,0.1,0.7,0.2
		l0.6-1.2c-0.3-0.2-0.7-0.3-1.1-0.3c-1,0-1.6,0.8-1.7,1v-0.8h-1.3V169.3z M321.6,164.8c0.2-1.1,1.1-1.9,2.2-1.9c1.1,0,2,0.8,2.2,1.9
		H321.6z M326.1,166.9c-0.2,0.4-0.4,0.7-0.8,1c-0.4,0.4-0.9,0.5-1.5,0.5c-1.3,0-2.3-1-2.4-2.5h5.8c0-1-0.2-2.1-0.7-2.8
		c-0.4-0.6-1.4-1.4-2.8-1.4c-2.2,0-3.6,1.7-3.6,3.9c0,2.7,1.9,3.9,3.7,3.9c0.9,0,1.8-0.3,2.5-0.9c0.4-0.3,0.7-0.8,0.9-1.2
		L326.1,166.9z M314.6,162.9c1.1,0,2.5,0.8,2.5,2.7c0,1.5-0.9,2.8-2.5,2.8c-1.5,0-2.4-1.2-2.4-2.8
		C312.1,163.8,313.3,162.9,314.6,162.9 M317,163c-0.3-0.4-1.1-1.2-2.5-1.2c-1.9,0-3.6,1.3-3.6,3.9c0,2.6,1.7,3.9,3.6,3.9
		c1.3,0,2.1-0.7,2.5-1.2v1h1.3v-13H317V163z M305.2,162.9c1.1,0,2.5,0.8,2.5,2.7c0,1.5-0.9,2.8-2.5,2.8c-1.5,0-2.4-1.2-2.4-2.8
		C302.8,163.8,304,162.9,305.2,162.9 M307.6,163c-0.3-0.4-1.1-1.2-2.5-1.2c-1.9,0-3.6,1.3-3.6,3.9c0,2.6,1.7,3.9,3.6,3.9
		c1.3,0,2.1-0.7,2.5-1.2v1h1.3v-7.4h-1.3V163z M294.4,164.8c0.2-1.1,1.1-1.9,2.2-1.9c1.1,0,2,0.8,2.2,1.9H294.4z M298.9,166.9
		c-0.2,0.4-0.4,0.7-0.8,1c-0.4,0.4-0.9,0.5-1.5,0.5c-1.3,0-2.3-1-2.4-2.5h5.8c0-1-0.2-2.1-0.7-2.8c-0.4-0.6-1.4-1.4-2.8-1.4
		c-2.2,0-3.6,1.7-3.6,3.9c0,2.7,1.9,3.9,3.7,3.9c0.9,0,1.8-0.3,2.5-0.9c0.4-0.3,0.7-0.8,0.9-1.2L298.9,166.9z M288.4,169.3h1.3v-3.9
		c0-1.2,0.2-1.7,0.4-2c0.2-0.2,0.5-0.5,1-0.5c0.2,0,0.5,0.1,0.7,0.2l0.6-1.2c-0.3-0.2-0.7-0.3-1.1-0.3c-1,0-1.6,0.8-1.7,1v-0.8h-1.3
		V169.3z M282.3,166.2h3.9v-1.3h-3.9V166.2z M274.8,164.8c0.2-1.1,1.1-1.9,2.2-1.9s2,0.8,2.2,1.9H274.8z M279.3,166.9
		c-0.2,0.4-0.4,0.7-0.8,1c-0.4,0.4-0.9,0.5-1.5,0.5c-1.3,0-2.3-1-2.4-2.5h5.8c0-1-0.2-2.1-0.7-2.8c-0.4-0.6-1.4-1.4-2.8-1.4
		c-2.2,0-3.6,1.7-3.6,3.9c0,2.7,1.9,3.9,3.7,3.9c0.9,0,1.8-0.3,2.5-0.9c0.4-0.3,0.7-0.8,0.9-1.2L279.3,166.9z M264.4,169.3h1.3v-3.9
		c0-1.2,0.2-1.7,0.4-2c0.2-0.2,0.5-0.5,1-0.5c0.2,0,0.5,0.1,0.7,0.2l0.6-1.2c-0.3-0.2-0.7-0.3-1.1-0.3c-1,0-1.6,0.8-1.7,1v-0.8h-1.3
		V169.3z M258.6,162.9c1.4,0,2.6,0.9,2.6,2.8c0,1.8-1.3,2.7-2.6,2.7c-1.3,0-2.6-0.9-2.6-2.7C256,163.9,257.2,162.9,258.6,162.9
		 M258.6,169.5c2.2,0,3.9-1.6,3.9-3.9c0-2.2-1.7-3.9-3.9-3.9c-2.3,0-3.9,1.7-3.9,3.9C254.6,167.9,256.3,169.5,258.6,169.5
		 M248.8,163.1c-0.6-1.3-1.6-1.3-2-1.3c-1.2,0-2.2,0.8-2.2,2.1c0,0.4,0.1,0.7,0.3,1.1c0.3,0.4,0.9,0.7,1.8,1.1
		c0.7,0.3,1.2,0.5,1.2,1.2c0,0.6-0.4,1.2-1.2,1.2c-0.9,0-1.4-0.8-1.5-1.2l-1.1,0.5c0.6,1.9,2.3,1.9,2.6,1.9c1.4,0,2.6-0.9,2.6-2.4
		c0-0.4-0.1-0.8-0.4-1.2c-0.3-0.4-0.8-0.7-1.9-1.1c-0.8-0.4-1.2-0.5-1.2-1.1c0-0.6,0.4-0.8,0.9-0.8c0.5,0,0.9,0.3,1,0.7L248.8,163.1
		z M243.4,163.1v-1.2h-1.3v-2.7h-1.3v2.7H240v1.2h0.8v6.2h1.3v-6.2H243.4z M233.2,164.8c0.2-1.1,1.1-1.9,2.2-1.9s2,0.8,2.2,1.9
		H233.2z M237.7,166.9c-0.2,0.4-0.4,0.7-0.8,1c-0.4,0.4-0.9,0.5-1.5,0.5c-1.3,0-2.3-1-2.4-2.5h5.8c0-1-0.2-2.1-0.7-2.8
		c-0.4-0.6-1.4-1.4-2.8-1.4c-2.2,0-3.6,1.7-3.6,3.9c0,2.7,1.9,3.9,3.7,3.9c0.9,0,1.8-0.3,2.5-0.9c0.4-0.3,0.7-0.8,0.9-1.2
		L237.7,166.9z M228.6,169.3h1.3v-13h-1.3V169.3z M222.9,168.4c-1.5,0-2.5-1.2-2.5-2.7c0-1.8,1.3-2.8,2.5-2.8s2.4,1,2.4,2.8
		C225.3,167.2,224.4,168.4,222.9,168.4 M220.5,168.3c0.6,0.7,1.4,1.2,2.6,1.2c2.2,0,3.5-1.8,3.5-3.9c0-2-1.3-3.9-3.6-3.9
		c-0.5,0-1.7,0.1-2.5,1.2v-6.6h-1.3v13h1.3V168.3z M213.2,162.9c1.1,0,2.5,0.8,2.5,2.7c0,1.5-0.9,2.8-2.5,2.8
		c-1.5,0-2.4-1.2-2.4-2.8C210.8,163.8,212,162.9,213.2,162.9 M215.6,163c-0.3-0.4-1.1-1.2-2.5-1.2c-1.9,0-3.6,1.3-3.6,3.9
		c0,2.6,1.7,3.9,3.6,3.9c1.3,0,2.1-0.7,2.5-1.2v1h1.3v-7.4h-1.3V163z M208.8,163.1v-1.2h-1.3v-2.7h-1.3v2.7h-0.8v1.2h0.8v6.2h1.3
		v-6.2H208.8z M196.1,162.9c1.4,0,2.6,0.9,2.6,2.8c0,1.8-1.3,2.7-2.6,2.7c-1.3,0-2.6-0.9-2.6-2.7
		C193.5,163.9,194.8,162.9,196.1,162.9 M196.1,169.5c2.2,0,3.9-1.6,3.9-3.9c0-2.2-1.7-3.9-3.9-3.9c-2.3,0-3.9,1.7-3.9,3.9
		C192.2,167.9,193.9,169.5,196.1,169.5 M191.5,163.1v-1.2h-1.3v-2.7H189v2.7h-0.8v1.2h0.8v6.2h1.3v-6.2H191.5z M182.6,163.1
		c-0.6-1.3-1.6-1.3-2-1.3c-1.2,0-2.2,0.8-2.2,2.1c0,0.4,0.1,0.7,0.3,1.1c0.3,0.4,0.9,0.7,1.8,1.1c0.7,0.3,1.2,0.5,1.2,1.2
		c0,0.6-0.4,1.2-1.2,1.2c-0.9,0-1.4-0.8-1.5-1.2l-1.1,0.5c0.6,1.9,2.3,1.9,2.6,1.9c1.4,0,2.6-0.9,2.6-2.4c0-0.4-0.1-0.8-0.4-1.2
		c-0.3-0.4-0.8-0.7-1.9-1.1c-0.8-0.4-1.2-0.5-1.2-1.1c0-0.6,0.4-0.8,0.9-0.8c0.5,0,0.9,0.3,1,0.7L182.6,163.1z M176.2,163.1
		c-0.6-1.3-1.6-1.3-2-1.3c-1.2,0-2.2,0.8-2.2,2.1c0,0.4,0.1,0.7,0.3,1.1c0.3,0.4,0.9,0.7,1.8,1.1c0.7,0.3,1.2,0.5,1.2,1.2
		c0,0.6-0.4,1.2-1.2,1.2c-0.9,0-1.4-0.8-1.5-1.2l-1.1,0.5c0.6,1.9,2.3,1.9,2.6,1.9c1.4,0,2.6-0.9,2.6-2.4c0-0.4-0.1-0.8-0.4-1.2
		c-0.3-0.4-0.8-0.7-1.9-1.1c-0.8-0.4-1.2-0.5-1.2-1.1c0-0.6,0.4-0.8,0.9-0.8c0.5,0,0.9,0.3,1,0.7L176.2,163.1z M164.5,164.8
		c0.2-1.1,1.1-1.9,2.2-1.9s2,0.8,2.2,1.9H164.5z M169.1,166.9c-0.2,0.4-0.4,0.7-0.8,1c-0.4,0.4-0.9,0.5-1.5,0.5
		c-1.3,0-2.3-1-2.4-2.5h5.8c0-1-0.2-2.1-0.7-2.8c-0.4-0.6-1.4-1.4-2.8-1.4c-2.2,0-3.6,1.7-3.6,3.9c0,2.7,1.9,3.9,3.7,3.9
		c0.9,0,1.8-0.3,2.5-0.9c0.4-0.3,0.7-0.8,0.9-1.2L169.1,166.9z M161.6,162.5c-0.4-0.2-1.1-0.7-2.3-0.7c-2.3,0-4,1.7-4,3.9
		c0,2.2,1.7,3.9,4,3.9c0.7,0,1.6-0.2,2.4-0.8v-1.5c-0.7,0.8-1.6,1.2-2.4,1.2c-1.3,0-2.6-0.9-2.6-2.7c0-1.8,1.2-2.8,2.6-2.8
		c0.7,0,1.6,0.2,2.3,1.1V162.5z M153.9,162.5c-0.4-0.2-1.1-0.7-2.3-0.7c-2.3,0-4,1.7-4,3.9c0,2.2,1.7,3.9,4,3.9
		c0.7,0,1.6-0.2,2.4-0.8v-1.5c-0.7,0.8-1.6,1.2-2.4,1.2c-1.3,0-2.6-0.9-2.6-2.7c0-1.8,1.2-2.8,2.6-2.8c0.7,0,1.6,0.2,2.3,1.1V162.5z
		 M142.1,162.9c1.1,0,2.5,0.8,2.5,2.7c0,1.5-0.9,2.8-2.5,2.8c-1.5,0-2.4-1.2-2.4-2.8C139.7,163.8,140.8,162.9,142.1,162.9
		 M144.5,163c-0.3-0.4-1.1-1.2-2.5-1.2c-1.9,0-3.6,1.3-3.6,3.9c0,2.6,1.7,3.9,3.6,3.9c1.3,0,2.1-0.7,2.5-1.2v1h1.3v-7.4h-1.3V163z
		 M127,164.8c0.2-1.1,1.1-1.9,2.2-1.9c1.1,0,2,0.8,2.2,1.9H127z M131.6,166.9c-0.2,0.4-0.4,0.7-0.8,1c-0.4,0.4-0.9,0.5-1.5,0.5
		c-1.3,0-2.3-1-2.4-2.5h5.8c0-1-0.2-2.1-0.7-2.8c-0.4-0.6-1.4-1.4-2.8-1.4c-2.2,0-3.6,1.7-3.6,3.9c0,2.7,1.9,3.9,3.7,3.9
		c0.9,0,1.8-0.3,2.5-0.9c0.4-0.3,0.7-0.8,0.9-1.2L131.6,166.9z M117.8,161.9l3.6,7.9l3.6-7.9h-1.4l-2.2,5l-2.2-5H117.8z
		 M112.7,162.9c1.1,0,2.5,0.8,2.5,2.7c0,1.5-0.9,2.8-2.5,2.8c-1.5,0-2.4-1.2-2.4-2.8C110.3,163.8,111.5,162.9,112.7,162.9
		 M115.1,163c-0.3-0.4-1.1-1.2-2.5-1.2c-1.9,0-3.6,1.3-3.6,3.9c0,2.6,1.7,3.9,3.6,3.9c1.3,0,2.1-0.7,2.5-1.2v1h1.3v-7.4h-1.3V163z
		 M101.1,169.3h1.3v-3.9c0-0.5,0-1.4,0.5-2c0.4-0.4,0.9-0.6,1.3-0.6c0.6,0,1,0.2,1.2,0.5c0.3,0.4,0.3,0.9,0.3,1.4v4.5h1.3v-4.6
		c0-0.8-0.1-1.4-0.4-2c-0.4-0.7-1.2-1-2.1-1c-1.2,0-1.9,0.7-2.1,1v-6.5h-1.3V169.3z"/>
	<path fill="#39A6B2" d="M86,159.6c1.7,0,2.9,1.4,2.9,3.3s-1.2,3.2-2.9,3.2s-2.9-1.3-2.9-3.2S84.3,159.6,86,159.6 M86,155.9
		c-3.9,0-7.2,3.1-7.2,7c0,3.9,3.3,7,7.2,7s7.2-3.1,7.2-7C93.2,159,89.9,155.9,86,155.9 M65.2,170.1c2.2-2.6,8.2-9.4,12.6-14.1
		c4.5-4.7,10.6-10.9,13.2-13.4l-2.2-2.2c-2.2,2.6-8.3,9.4-12.7,14c-4.4,4.7-10.6,10.9-13.2,13.5L65.2,170.1z M68,151.1
		c-1.7,0-2.9-1.3-2.9-3.2c0-1.9,1.2-3.3,2.9-3.3c1.7,0,2.9,1.4,2.9,3.3C70.9,149.8,69.7,151.1,68,151.1 M68,154.7
		c3.9,0,7.2-3.1,7.2-7c0-3.9-3.3-7-7.2-7s-7.2,3.1-7.2,7C60.8,151.6,64.1,154.7,68,154.7 M34.4,169.4c0,1.3,0.6,2.7,1.8,3.8
		c1.8,1.7,4.9,2.9,9.4,2.9c7.1,0,12.4-4.8,12.4-11.6c0-7.1-5.2-10.9-12.1-10.9c-1.6,0-3.3,0.2-4.5,0.5l0.9-7.5h13.9v-5.5H37.8
		l-2.1,17.4l2.7,1.5c2-1.1,4.5-1.6,6.5-1.6c4.9,0,7.1,2.5,7.1,5.9c0,3.6-2.4,6.6-6.8,6.6c-1.6,0-2.9-0.2-4-0.5
		c0.3-0.5,0.5-1.2,0.5-1.7c0-1.9-1.6-3.5-3.5-3.5C36.1,165.4,34.4,167.1,34.4,169.4 M6.3,168.1c0,1.2,0.4,2.4,1.1,3.4
		c1.9,2.7,5.9,4.7,10.9,4.7c7.1,0,12.4-3.9,12.4-9.8c0-3.6-2.1-6-4.7-7.5c-1-0.5-2-1-3-1.2c1.2-0.2,2.3-0.6,3.3-1.2
		c2.5-1.4,4.2-3.7,4.2-6.6c0-5.1-4.9-8.9-11.6-8.9c-5.4,0-8.6,2-10.1,4.2c-0.7,1.1-1.1,2.2-1.1,3.1c0,2.6,1.7,4.2,3.6,4.2
		s3.5-1.6,3.5-3.5c0-0.7-0.3-1.6-0.7-2.1c0.9-0.7,2.4-1.1,4.5-1.1c3.2,0,5.8,1.4,5.8,4.3c0,1.9-1.1,3.4-2.9,4.3
		c-1.5,0.7-3.5,1.2-5.8,1.2h-1.8v4.6h1.6c2.4,0,4.2,0.3,5.6,0.9c2.5,1.1,3.5,2.9,3.5,4.9c0,3.3-2.7,5.4-6.3,5.4
		c-2.2,0-4.3-0.5-5.7-1.6c0.4-0.6,0.7-1.4,0.7-2.1c0-1.9-1.6-3.5-3.5-3.5C7.8,164,6.3,165.9,6.3,168.1"/>
	<path fill="#014F77" d="M474.6,230c-0.6-1.3-1.6-1.3-2-1.3c-1.2,0-2.2,0.8-2.2,2.1c0,0.4,0.1,0.7,0.3,1.1c0.3,0.4,0.9,0.7,1.8,1.1
		c0.7,0.3,1.2,0.5,1.2,1.2c0,0.6-0.4,1.2-1.2,1.2c-0.9,0-1.4-0.8-1.5-1.2l-1.1,0.5c0.6,1.9,2.3,1.9,2.6,1.9c1.4,0,2.6-0.9,2.6-2.4
		c0-0.4-0.1-0.8-0.4-1.2c-0.3-0.4-0.8-0.7-1.9-1.1c-0.8-0.4-1.2-0.5-1.2-1.1c0-0.6,0.4-0.8,0.9-0.8c0.5,0,0.9,0.3,1,0.7L474.6,230z
		 M462.9,231.7c0.2-1.1,1.1-1.9,2.2-1.9c1.1,0,2,0.8,2.2,1.9H462.9z M467.4,233.7c-0.2,0.4-0.4,0.7-0.8,1c-0.4,0.4-0.9,0.5-1.5,0.5
		c-1.3,0-2.3-1-2.4-2.5h5.8c0-1-0.2-2.1-0.7-2.8c-0.4-0.6-1.4-1.4-2.8-1.4c-2.2,0-3.6,1.7-3.6,3.9c0,2.7,1.9,3.9,3.7,3.9
		c0.9,0,1.8-0.3,2.5-0.9c0.4-0.3,0.7-0.8,0.9-1.2L467.4,233.7z M458.1,226c0,0.5,0.4,0.9,0.9,0.9s0.9-0.4,0.9-0.9
		c0-0.5-0.4-0.9-0.9-0.9S458.1,225.5,458.1,226 M458.3,236.2h1.3v-7.4h-1.3V236.2z M457,230v-1.2h-1.3v-2.7h-1.3v2.7h-0.8v1.2h0.8
		v6.2h1.3V230H457z M450.5,226c0,0.5,0.4,0.9,0.9,0.9s0.9-0.4,0.9-0.9c0-0.5-0.4-0.9-0.9-0.9S450.5,225.5,450.5,226 M450.8,236.2
		h1.3v-7.4h-1.3V236.2z M442.1,228.8l3.6,7.9l3.6-7.9H448l-2.2,5l-2.2-5H442.1z M439.3,226c0,0.5,0.4,0.9,0.9,0.9
		c0.5,0,0.9-0.4,0.9-0.9c0-0.5-0.4-0.9-0.9-0.9C439.7,225.1,439.3,225.5,439.3,226 M439.5,236.2h1.3v-7.4h-1.3V236.2z M438.2,230
		v-1.2H437v-2.7h-1.3v2.7h-0.8v1.2h0.8v6.2h1.3V230H438.2z M433.6,229.3c-0.4-0.2-1.1-0.7-2.3-0.7c-2.3,0-4,1.7-4,3.9
		c0,2.2,1.7,3.9,4,3.9c0.7,0,1.6-0.2,2.4-0.8v-1.5c-0.7,0.8-1.6,1.2-2.4,1.2c-1.3,0-2.6-0.9-2.6-2.7s1.2-2.8,2.6-2.8
		c0.7,0,1.6,0.2,2.3,1.1V229.3z M421.7,229.8c1.1,0,2.5,0.8,2.5,2.7c0,1.5-0.9,2.8-2.5,2.8c-1.5,0-2.4-1.2-2.4-2.8
		C419.3,230.7,420.5,229.8,421.7,229.8 M424.1,229.9c-0.3-0.4-1.1-1.2-2.5-1.2c-1.9,0-3.6,1.3-3.6,3.9c0,2.6,1.7,3.9,3.6,3.9
		c1.3,0,2.1-0.7,2.5-1.2v1h1.3v-7.4h-1.3V229.9z M409,236.2h1.3v-3.9c0-1.2,0.2-1.7,0.4-2c0.2-0.2,0.5-0.5,1-0.5
		c0.2,0,0.5,0.1,0.7,0.2l0.6-1.2c-0.3-0.2-0.7-0.3-1.1-0.3c-1,0-1.6,0.8-1.7,1v-0.8H409V236.2z M403.2,229.8c1.4,0,2.6,0.9,2.6,2.8
		c0,1.8-1.3,2.7-2.6,2.7c-1.3,0-2.6-0.9-2.6-2.7C400.6,230.7,401.8,229.8,403.2,229.8 M403.2,236.4c2.2,0,3.9-1.6,3.9-3.9
		s-1.7-3.9-3.9-3.9c-2.3,0-3.9,1.7-3.9,3.9S400.9,236.4,403.2,236.4 M393.4,230c-0.6-1.3-1.6-1.3-2-1.3c-1.2,0-2.2,0.8-2.2,2.1
		c0,0.4,0.1,0.7,0.3,1.1c0.3,0.4,0.9,0.7,1.8,1.1c0.7,0.3,1.2,0.5,1.2,1.2c0,0.6-0.4,1.2-1.2,1.2c-0.9,0-1.4-0.8-1.5-1.2l-1.1,0.5
		c0.6,1.9,2.3,1.9,2.6,1.9c1.4,0,2.6-0.9,2.6-2.4c0-0.4-0.1-0.8-0.4-1.2c-0.3-0.4-0.8-0.7-1.9-1.1c-0.8-0.4-1.2-0.5-1.2-1.1
		c0-0.6,0.4-0.8,0.9-0.8c0.5,0,0.9,0.3,1,0.7L393.4,230z M381.7,231.7c0.2-1.1,1.1-1.9,2.2-1.9c1.1,0,2,0.8,2.2,1.9H381.7z
		 M386.3,233.7c-0.2,0.4-0.4,0.7-0.8,1c-0.4,0.4-0.9,0.5-1.5,0.5c-1.3,0-2.3-1-2.4-2.5h5.8c0-1-0.2-2.1-0.7-2.8
		c-0.4-0.6-1.4-1.4-2.8-1.4c-2.2,0-3.6,1.7-3.6,3.9c0,2.7,1.9,3.9,3.7,3.9c0.9,0,1.8-0.3,2.5-0.9c0.4-0.3,0.7-0.8,0.9-1.2
		L386.3,233.7z M368.6,236.2h1.3v-4c0-0.9,0.2-2.4,1.6-2.4c1.4,0,1.3,1.5,1.3,2.1v4.4h1.3v-4.1c0-0.9,0.2-2.3,1.6-2.3
		c1.2,0,1.3,1.1,1.3,1.9v4.5h1.3v-4.7c0-1.1-0.2-2.9-2.4-2.9c-0.5,0-1.5,0.1-2.2,1.2c-0.1-0.2-0.7-1.2-2-1.2c-0.8,0-1.4,0.4-1.8,1
		v-0.8h-1.3V236.2z M362.6,229.8c1.1,0,2.5,0.8,2.5,2.7c0,1.5-0.9,2.8-2.5,2.8c-1.5,0-2.4-1.2-2.4-2.8
		C360.2,230.7,361.3,229.8,362.6,229.8 M365,229.9c-0.3-0.4-1.1-1.2-2.5-1.2c-1.9,0-3.6,1.3-3.6,3.9c0,2.6,1.7,3.9,3.6,3.9
		c1.3,0,2.1-0.7,2.5-1.2v1h1.3v-7.4H365V229.9z M353.3,229.8c0.7,0,1.3,0.2,1.7,0.7c0.5,0.4,0.8,1.2,0.8,2.1s-0.3,1.7-0.8,2.1
		c-0.4,0.4-0.9,0.6-1.6,0.6s-1.2-0.2-1.6-0.6c-0.7-0.7-0.8-1.5-0.8-2.2c0-0.6,0.1-1.4,0.7-2C351.9,230.1,352.5,229.8,353.3,229.8
		 M355.7,229.9c-0.6-0.8-1.4-1.2-2.5-1.2c-1,0-1.9,0.4-2.5,1c-0.5,0.5-1.1,1.4-1.1,2.9c0,1.5,0.6,2.4,1.1,2.9c0.6,0.6,1.4,1,2.5,1
		c1.3,0,2.1-0.7,2.5-1.2v1.1c0,0.6,0,1.3-0.4,1.9c-0.4,0.7-1.1,1-2,1c-0.6,0-1.2-0.1-1.8-0.7c-0.3-0.4-0.6-0.9-0.6-1.5h-1.3
		c0,1.1,0.5,1.9,1,2.4c0.5,0.5,1.4,1,2.6,1c1.4,0,2.4-0.6,3-1.4c0.7-1,0.7-2.1,0.7-2.9v-7.2h-1.3V229.9z M342.1,236.2h1.3v-13h-1.3
		V236.2z M336.1,229.8c1.1,0,2.5,0.8,2.5,2.7c0,1.5-0.9,2.8-2.5,2.8c-1.5,0-2.4-1.2-2.4-2.8C333.7,230.7,334.9,229.8,336.1,229.8
		 M338.5,229.9c-0.3-0.4-1.1-1.2-2.5-1.2c-1.9,0-3.6,1.3-3.6,3.9c0,2.6,1.7,3.9,3.6,3.9c1.3,0,2.1-0.7,2.5-1.2v1h1.3v-7.4h-1.3
		V229.9z M324.5,236.2h1.3v-3.9c0-0.5,0-1.4,0.5-2c0.4-0.4,0.9-0.6,1.3-0.6c0.6,0,1,0.2,1.2,0.5c0.3,0.4,0.3,0.9,0.3,1.4v4.5h1.3
		v-4.6c0-0.8-0.1-1.4-0.4-2c-0.4-0.7-1.2-1-2.1-1c-1.2,0-1.9,0.7-2.1,1v-0.9h-1.3V236.2z M318.7,229.8c1.4,0,2.6,0.9,2.6,2.8
		c0,1.8-1.3,2.7-2.6,2.7c-1.3,0-2.6-0.9-2.6-2.7C316.1,230.7,317.4,229.8,318.7,229.8 M318.7,236.4c2.2,0,3.9-1.6,3.9-3.9
		s-1.7-3.9-3.9-3.9s-3.9,1.7-3.9,3.9S316.5,236.4,318.7,236.4 M311.4,226c0,0.5,0.4,0.9,0.9,0.9c0.5,0,0.9-0.4,0.9-0.9
		c0-0.5-0.4-0.9-0.9-0.9C311.8,225.1,311.4,225.5,311.4,226 M311.7,236.2h1.3v-7.4h-1.3V236.2z M310.4,230v-1.2h-1.3v-2.7h-1.3v2.7
		h-0.8v1.2h0.8v6.2h1.3V230H310.4z M301.7,229.8c1.1,0,2.5,0.8,2.5,2.7c0,1.5-0.9,2.8-2.5,2.8c-1.5,0-2.4-1.2-2.4-2.8
		C299.3,230.7,300.4,229.8,301.7,229.8 M304.1,229.9c-0.3-0.4-1.1-1.2-2.5-1.2c-1.9,0-3.6,1.3-3.6,3.9c0,2.6,1.7,3.9,3.6,3.9
		c1.3,0,2.1-0.7,2.5-1.2v1h1.3v-7.4h-1.3V229.9z M296.5,229.3c-0.4-0.2-1.1-0.7-2.3-0.7c-2.3,0-4,1.7-4,3.9c0,2.2,1.7,3.9,4,3.9
		c0.7,0,1.6-0.2,2.4-0.8v-1.5c-0.7,0.8-1.6,1.2-2.4,1.2c-1.3,0-2.6-0.9-2.6-2.7s1.2-2.8,2.6-2.8c0.7,0,1.6,0.2,2.3,1.1V229.3z
		 M283.8,228.8h-1.3v4.5c0,0.9,0.1,1.6,0.7,2.2c0.7,0.7,1.5,0.9,2.3,0.9s1.6-0.2,2.3-0.9c0.6-0.6,0.7-1.3,0.7-2.2v-4.5h-1.3v4.3
		c0,0.5,0,1.1-0.4,1.6c-0.2,0.2-0.6,0.6-1.3,0.6c-0.7,0-1.1-0.3-1.3-0.6c-0.4-0.5-0.4-1.1-0.4-1.6V228.8z M276.5,229.8
		c1.1,0,2.5,0.8,2.5,2.7c0,1.5-0.9,2.8-2.5,2.8c-1.5,0-2.4-1.2-2.4-2.8C274.1,230.7,275.2,229.8,276.5,229.8 M278.9,229.9
		c-0.3-0.4-1.1-1.2-2.5-1.2c-1.9,0-3.6,1.3-3.6,3.9c0,2.6,1.7,3.9,3.6,3.9c1.3,0,2.1-0.7,2.5-1.2v1h1.3v-13h-1.3V229.9z
		 M265.6,231.7c0.2-1.1,1.1-1.9,2.2-1.9s2,0.8,2.2,1.9H265.6z M270.2,233.7c-0.2,0.4-0.4,0.7-0.8,1c-0.4,0.4-0.9,0.5-1.5,0.5
		c-1.3,0-2.3-1-2.4-2.5h5.8c0-1-0.2-2.1-0.7-2.8c-0.4-0.6-1.4-1.4-2.8-1.4c-2.2,0-3.6,1.7-3.6,3.9c0,2.7,1.9,3.9,3.7,3.9
		c0.9,0,1.8-0.3,2.5-0.9c0.4-0.3,0.7-0.8,0.9-1.2L270.2,233.7z M254.4,229.8c1.1,0,2.5,0.8,2.5,2.7c0,1.5-0.9,2.8-2.5,2.8
		c-1.5,0-2.4-1.2-2.4-2.8C252,230.7,253.2,229.8,254.4,229.8 M256.8,229.9c-0.3-0.4-1.1-1.2-2.5-1.2c-1.9,0-3.6,1.3-3.6,3.9
		c0,2.6,1.7,3.9,3.6,3.9c1.3,0,2.1-0.7,2.5-1.2v1h1.3v-13h-1.3V229.9z M243.6,231.7c0.2-1.1,1.1-1.9,2.2-1.9c1.1,0,2,0.8,2.2,1.9
		H243.6z M248.1,233.7c-0.2,0.4-0.4,0.7-0.8,1c-0.4,0.4-0.9,0.5-1.5,0.5c-1.3,0-2.3-1-2.4-2.5h5.8c0-1-0.2-2.1-0.7-2.8
		c-0.4-0.6-1.4-1.4-2.8-1.4c-2.2,0-3.6,1.7-3.6,3.9c0,2.7,1.9,3.9,3.7,3.9c0.9,0,1.8-0.3,2.5-0.9c0.4-0.3,0.7-0.8,0.9-1.2
		L248.1,233.7z M240.4,230c-0.6-1.3-1.6-1.3-2-1.3c-1.2,0-2.2,0.8-2.2,2.1c0,0.4,0.1,0.7,0.3,1.1c0.3,0.4,0.9,0.7,1.8,1.1
		c0.7,0.3,1.2,0.5,1.2,1.2c0,0.6-0.4,1.2-1.2,1.2c-0.9,0-1.4-0.8-1.5-1.2l-1.1,0.5c0.6,1.9,2.3,1.9,2.6,1.9c1.4,0,2.6-0.9,2.6-2.4
		c0-0.4-0.1-0.8-0.4-1.2c-0.3-0.4-0.8-0.7-1.9-1.1c-0.8-0.4-1.2-0.5-1.2-1.1c0-0.6,0.4-0.8,0.9-0.8c0.5,0,0.9,0.3,1,0.7L240.4,230z
		 M230.4,229.8c1.1,0,2.5,0.8,2.5,2.7c0,1.5-0.9,2.8-2.5,2.8c-1.5,0-2.4-1.2-2.4-2.8C227.9,230.7,229.1,229.8,230.4,229.8
		 M232.8,229.9c-0.3-0.4-1.1-1.2-2.5-1.2c-1.9,0-3.6,1.3-3.6,3.9c0,2.6,1.7,3.9,3.6,3.9c1.3,0,2.1-0.7,2.5-1.2v1h1.3v-7.4h-1.3
		V229.9z M221.4,235.3c-1.5,0-2.5-1.2-2.5-2.7c0-1.8,1.3-2.8,2.5-2.8c1.2,0,2.4,1,2.4,2.8C223.8,234,222.9,235.3,221.4,235.3
		 M219,235.2c0.6,0.7,1.4,1.2,2.6,1.2c2.2,0,3.5-1.8,3.5-3.9c0-2-1.3-3.9-3.6-3.9c-0.5,0-1.7,0.1-2.5,1.2v-6.6h-1.3v13h1.3V235.2z
		 M211.6,233.1h3.9v-1.3h-3.9V233.1z M206,235.3c-1.5,0-2.5-1.2-2.5-2.7c0-1.8,1.3-2.8,2.5-2.8c1.2,0,2.4,1,2.4,2.8
		C208.4,234,207.5,235.3,206,235.3 M203.6,235.2c0.6,0.7,1.4,1.2,2.6,1.2c2.2,0,3.5-1.8,3.5-3.9c0-2-1.3-3.9-3.6-3.9
		c-0.5,0-1.7,0.1-2.5,1.2v-6.6h-1.3v13h1.3V235.2z M194.8,231.7c0.2-1.1,1.1-1.9,2.2-1.9c1.1,0,2,0.8,2.2,1.9H194.8z M199.3,233.7
		c-0.2,0.4-0.4,0.7-0.8,1c-0.4,0.4-0.9,0.5-1.5,0.5c-1.3,0-2.3-1-2.4-2.5h5.8c0-1-0.2-2.1-0.7-2.8c-0.4-0.6-1.4-1.4-2.8-1.4
		c-2.2,0-3.6,1.7-3.6,3.9c0,2.7,1.9,3.9,3.7,3.9c0.9,0,1.8-0.3,2.5-0.9c0.4-0.3,0.7-0.8,0.9-1.2L199.3,233.7z M180.9,228.8l3.6,7.9
		l2.3-5.5l2.3,5.5l3.7-7.9h-1.4l-2.2,5l-2.3-5.6l-2.3,5.6l-2.2-5H180.9z M170.2,231.7c0.2-1.1,1.1-1.9,2.2-1.9c1.1,0,2,0.8,2.2,1.9
		H170.2z M174.7,233.7c-0.2,0.4-0.4,0.7-0.8,1c-0.4,0.4-0.9,0.5-1.5,0.5c-1.3,0-2.3-1-2.4-2.5h5.8c0-1-0.2-2.1-0.7-2.8
		c-0.4-0.6-1.4-1.4-2.8-1.4c-2.2,0-3.6,1.7-3.6,3.9c0,2.7,1.9,3.9,3.7,3.9c0.9,0,1.8-0.3,2.5-0.9c0.4-0.3,0.7-0.8,0.9-1.2
		L174.7,233.7z M167,230c-0.6-1.3-1.6-1.3-2-1.3c-1.2,0-2.2,0.8-2.2,2.1c0,0.4,0.1,0.7,0.3,1.1c0.3,0.4,0.9,0.7,1.8,1.1
		c0.7,0.3,1.2,0.5,1.2,1.2c0,0.6-0.4,1.2-1.2,1.2c-0.9,0-1.4-0.8-1.5-1.2l-1.1,0.5c0.6,1.9,2.3,1.9,2.6,1.9c1.4,0,2.6-0.9,2.6-2.4
		c0-0.4-0.1-0.8-0.4-1.2c-0.3-0.4-0.8-0.7-1.9-1.1c-0.8-0.4-1.2-0.5-1.2-1.1c0-0.6,0.4-0.8,0.9-0.8c0.5,0,0.9,0.3,1,0.7L167,230z
		 M156.1,228.8h-1.3v4.5c0,0.9,0.1,1.6,0.7,2.2c0.7,0.7,1.5,0.9,2.3,0.9c0.7,0,1.6-0.2,2.3-0.9c0.6-0.6,0.7-1.3,0.7-2.2v-4.5h-1.3
		v4.3c0,0.5,0,1.1-0.4,1.6c-0.2,0.2-0.6,0.6-1.3,0.6s-1.1-0.3-1.3-0.6c-0.4-0.5-0.4-1.1-0.4-1.6V228.8z M142.5,240.3h1.4l5.4-11.5
		h-1.4l-2.4,5.3l-2.6-5.3h-1.5l3.4,6.7L142.5,240.3z M136.4,229.8c1.1,0,2.5,0.8,2.5,2.7c0,1.5-0.9,2.8-2.5,2.8
		c-1.5,0-2.4-1.2-2.4-2.8C133.9,230.7,135.1,229.8,136.4,229.8 M138.8,229.9c-0.3-0.4-1.1-1.2-2.5-1.2c-1.9,0-3.6,1.3-3.6,3.9
		c0,2.6,1.7,3.9,3.6,3.9c1.3,0,2.1-0.7,2.5-1.2v1h1.3v-13h-1.3V229.9z M127,229.8c1.1,0,2.5,0.8,2.5,2.7c0,1.5-0.9,2.8-2.5,2.8
		c-1.5,0-2.4-1.2-2.4-2.8C124.6,230.7,125.8,229.8,127,229.8 M129.4,229.9c-0.3-0.4-1.1-1.2-2.5-1.2c-1.9,0-3.6,1.3-3.6,3.9
		c0,2.6,1.7,3.9,3.6,3.9c1.3,0,2.1-0.7,2.5-1.2v1h1.3v-7.4h-1.3V229.9z M116.2,231.7c0.2-1.1,1.1-1.9,2.2-1.9c1.1,0,2,0.8,2.2,1.9
		H116.2z M120.7,233.7c-0.2,0.4-0.4,0.7-0.8,1c-0.4,0.4-0.9,0.5-1.5,0.5c-1.3,0-2.3-1-2.4-2.5h5.8c0-1-0.2-2.1-0.7-2.8
		c-0.4-0.6-1.4-1.4-2.8-1.4c-2.2,0-3.6,1.7-3.6,3.9c0,2.7,1.9,3.9,3.7,3.9c0.9,0,1.8-0.3,2.5-0.9c0.4-0.3,0.7-0.8,0.9-1.2
		L120.7,233.7z M110.2,236.2h1.3v-3.9c0-1.2,0.2-1.7,0.4-2c0.2-0.2,0.5-0.5,1-0.5c0.2,0,0.5,0.1,0.7,0.2l0.6-1.2
		c-0.3-0.2-0.7-0.3-1.1-0.3c-1,0-1.6,0.8-1.7,1v-0.8h-1.3V236.2z M106.6,236.2h1.3v-13h-1.3V236.2z M100.6,229.8
		c1.1,0,2.5,0.8,2.5,2.7c0,1.5-0.9,2.8-2.5,2.8c-1.5,0-2.4-1.2-2.4-2.8C98.2,230.7,99.3,229.8,100.6,229.8 M103,229.9
		c-0.3-0.4-1.1-1.2-2.5-1.2c-1.9,0-3.6,1.3-3.6,3.9c0,2.6,1.7,3.9,3.6,3.9c1.3,0,2.1-0.7,2.5-1.2v1h1.3v-7.4H103V229.9z"/>
	<path fill="#39A6B2" d="M82.2,226.5c1.7,0,2.9,1.4,2.9,3.3s-1.2,3.2-2.9,3.2c-1.7,0-2.9-1.3-2.9-3.2S80.5,226.5,82.2,226.5
		 M82.2,222.7c-3.9,0-7.2,3.1-7.2,7s3.3,7,7.2,7c3.9,0,7.2-3.1,7.2-7S86.1,222.7,82.2,222.7 M61.4,237c2.2-2.6,8.2-9.4,12.6-14.1
		c4.5-4.7,10.6-10.9,13.2-13.4l-2.2-2.2c-2.2,2.6-8.3,9.4-12.7,14c-4.4,4.7-10.6,10.9-13.2,13.5L61.4,237z M64.2,218
		c-1.7,0-2.9-1.3-2.9-3.2c0-1.9,1.2-3.3,2.9-3.3c1.7,0,2.9,1.4,2.9,3.3C67.1,216.6,65.9,218,64.2,218 M64.2,221.6
		c3.9,0,7.2-3.1,7.2-7s-3.3-7-7.2-7s-7.2,3.1-7.2,7S60.3,221.6,64.2,221.6 M30.6,236.3c0,1.3,0.6,2.7,1.8,3.8
		c1.8,1.7,4.9,2.9,9.4,2.9c7.1,0,12.4-4.8,12.4-11.6c0-7.1-5.2-10.9-12.1-10.9c-1.6,0-3.3,0.2-4.5,0.5l0.9-7.5h13.9v-5.5H34
		l-2.1,17.4l2.7,1.5c2-1.1,4.5-1.6,6.5-1.6c4.9,0,7.1,2.5,7.1,5.9c0,3.6-2.4,6.6-6.8,6.6c-1.6,0-2.9-0.2-4-0.5
		c0.3-0.5,0.5-1.2,0.5-1.7c0-1.9-1.6-3.5-3.5-3.5C32.2,232.3,30.6,234,30.6,236.3 M16.7,242.6h5.7v-8.9h5.2v-4.8h-5.2v-8.3l-5.7,2.2
		v6H8.2l14-18.5l-4.2-3.4L0,230.9l1.3,2.9h15.4V242.6z"/>
</g>
</svg>
